<svg id="Laag_1" data-name="Laag 1" xmlns="http://www.w3.org/2000/svg" viewBox="0 0 538.69 258.16"><defs><style>.cls-1{fill:#fff;}</style></defs><path class="cls-1" d="M149.26,129.42a6.27,6.27,0,0,0-6.26,6.26c0,.22,0,.43,0,.64l-39.95,23.07L60,134.49V84.69l44.72-25.82-3.2-5.54L53.56,81v57.18l49.52,28.6,43.82-25.3a6.2,6.2,0,0,0,2.36.46,6.26,6.26,0,1,0,0-12.52Zm1,8.31a2.32,2.32,0,0,1-1,.21,2.27,2.27,0,1,1,1-.21Z"/><path class="cls-1" d="M132.84,96.08s0-.07,0-.11a6.28,6.28,0,1,0-3.38,5.56L169,124.36v49.8l-43.13,24.89L81.17,173.23,78,178.77l47.92,27.67,49.52-28.59V120.66Zm-6.26-2.37a2.42,2.42,0,0,1,.47.05,2.26,2.26,0,0,1-.47,4.48A2.3,2.3,0,0,1,124.32,96,2.26,2.26,0,0,1,126.58,93.71Z"/><path class="cls-1" d="M149.56,52.41,100,81v49.87a6.27,6.27,0,1,0,6.39.18V84.69L149.56,59.8l43.12,24.89v51.65h6.4V81ZM103.08,138.6a2.27,2.27,0,1,1,2.27-2.26A2.26,2.26,0,0,1,103.08,138.6Z"/><polygon class="cls-1" points="112.79 67.11 105.69 63 98.64 67.06 97.65 65.33 105.7 60.69 113.79 65.38 112.79 67.11"/><polygon class="cls-1" points="181.5 139.29 188.6 135.19 188.59 127.05 190.59 127.05 190.6 136.34 182.5 141.02 181.5 139.29"/><polygon class="cls-1" points="84.27 162.08 84.25 170.28 91.28 174.36 90.28 176.09 82.25 171.43 82.27 162.07 84.27 162.08"/><path class="cls-1" d="M222.05,172.51a25.81,25.81,0,0,1-9.88-8.25l10.44-7.5a11.93,11.93,0,0,0,5.06,4.75,16.78,16.78,0,0,0,7.69,1.69q7.42,0,11.53-4.63t4.09-13V83.65h12.75v62a36,36,0,0,1-3.32,16.12,22.83,22.83,0,0,1-9.68,10.18,31.43,31.43,0,0,1-15.37,3.5A30.2,30.2,0,0,1,222.05,172.51Z"/><path class="cls-1" d="M294.51,171.26a28.38,28.38,0,0,1-11.09-11.88,38.59,38.59,0,0,1-3.94-17.81V116.64a38.62,38.62,0,0,1,3.94-17.81,28.61,28.61,0,0,1,11.09-11.9,32.08,32.08,0,0,1,16.59-4.22,31.15,31.15,0,0,1,14.37,3.35,30.31,30.31,0,0,1,11,9.46,35.49,35.49,0,0,1,6,14.19H329.35a20.28,20.28,0,0,0-4-7.6A19.51,19.51,0,0,0,318.85,97a18.35,18.35,0,0,0-17.5.87,18,18,0,0,0-6.5,7.53,25.94,25.94,0,0,0-2.31,11.28v24.93a26,26,0,0,0,2.31,11.25A17.18,17.18,0,0,0,311.1,163a18.54,18.54,0,0,0,7.78-1.69,18.19,18.19,0,0,0,6.5-5,19.86,19.86,0,0,0,4-7.87h13.06a35.21,35.21,0,0,1-6,14.18,30.5,30.5,0,0,1-11,9.47,31,31,0,0,1-14.31,3.34A32.25,32.25,0,0,1,294.51,171.26Z"/><path class="cls-1" d="M368,174.19a46.69,46.69,0,0,1-11-3.75,46.05,46.05,0,0,1-9.53-6.25l7.94-9.74a35.85,35.85,0,0,0,11.43,6.75,39.78,39.78,0,0,0,13.56,2.24q9.87,0,15.31-3.65a11.73,11.73,0,0,0,5.44-10.34v-.06a11,11,0,0,0-2.47-7.53,14.77,14.77,0,0,0-6.37-4.13,71.81,71.81,0,0,0-10.1-2.47,1.29,1.29,0,0,0-.4-.06,1.35,1.35,0,0,1-.41-.06l-.94-.19a97.78,97.78,0,0,1-14.84-3.53,20.83,20.83,0,0,1-9.77-7.19q-4.07-5.2-4.07-14.84v-.06a26.37,26.37,0,0,1,3.78-14.4,23.73,23.73,0,0,1,11-9.09,47.61,47.61,0,0,1,27-2.06A47.53,47.53,0,0,1,403,86.93a54.38,54.38,0,0,1,9,5.28l-7.25,10.12a42.52,42.52,0,0,0-10.34-5.71,29.69,29.69,0,0,0-10.34-1.91q-9.32,0-14.47,3.72A12.21,12.21,0,0,0,364.48,109V109a10,10,0,0,0,2.65,7.37,16.07,16.07,0,0,0,6.62,4,99.92,99.92,0,0,0,11,2.66l.47.09.47.09c.21,0,.44.09.69.13l.69.12a75.89,75.89,0,0,1,13.77,4,21.47,21.47,0,0,1,9.25,7.47q3.72,5.16,3.72,14.09v.13a25,25,0,0,1-3.94,14.21,24.46,24.46,0,0,1-11.4,9,47.13,47.13,0,0,1-18,3.09A59.13,59.13,0,0,1,368,174.19Z"/><path class="cls-1" d="M439.47,174.19a45.9,45.9,0,0,1-20.5-10l7.94-9.74a36,36,0,0,0,11.43,6.75,39.78,39.78,0,0,0,13.56,2.24q9.89,0,15.31-3.65a11.73,11.73,0,0,0,5.44-10.34v-.06a10.9,10.9,0,0,0-2.47-7.53,14.71,14.71,0,0,0-6.37-4.13,72,72,0,0,0-10.09-2.47,1.35,1.35,0,0,0-.41-.06,1.35,1.35,0,0,1-.41-.06L452,135a97.19,97.19,0,0,1-14.84-3.53,20.85,20.85,0,0,1-9.78-7.19q-4.07-5.2-4.06-14.84v-.06a26.28,26.28,0,0,1,3.78-14.4,23.7,23.7,0,0,1,11-9.09,47.61,47.61,0,0,1,27-2.06,47.31,47.31,0,0,1,9.31,3.15,54.38,54.38,0,0,1,9,5.28l-7.25,10.12a42.34,42.34,0,0,0-10.34-5.71,29.65,29.65,0,0,0-10.34-1.91q-9.31,0-14.47,3.72A12.23,12.23,0,0,0,435.91,109V109a10,10,0,0,0,2.65,7.37,16,16,0,0,0,6.63,4,98.79,98.79,0,0,0,11,2.66l.46.09.47.09c.21,0,.44.09.69.13l.69.12a76,76,0,0,1,13.78,4,21.44,21.44,0,0,1,9.24,7.47q3.72,5.16,3.72,14.09v.13a25.06,25.06,0,0,1-3.93,14.21,24.54,24.54,0,0,1-11.41,9,47.13,47.13,0,0,1-18,3.09A59.13,59.13,0,0,1,439.47,174.19Z"/><path class="cls-1" d="M208.25,200.8a3.57,3.57,0,0,1-.76,2.44,2.76,2.76,0,0,1-2.17.87,3.18,3.18,0,0,1-1.44-.32,2.27,2.27,0,0,1-.95-.89l-2,1.41a4.72,4.72,0,0,0,1.85,1.54,5.61,5.61,0,0,0,2.49.55,5.91,5.91,0,0,0,2.89-.65,4.34,4.34,0,0,0,1.81-1.91,6.71,6.71,0,0,0,.62-3V189.19h-2.39Z"/><path class="cls-1" d="M217.39,193.26a3.43,3.43,0,0,1,1.22-1.41,3.31,3.31,0,0,1,1.83-.5,3.22,3.22,0,0,1,1.45.34,3.55,3.55,0,0,1,1.23,1,3.83,3.83,0,0,1,.74,1.43h2.45a6.55,6.55,0,0,0-1.12-2.66,5.65,5.65,0,0,0-2.05-1.78,5.84,5.84,0,0,0-2.7-.63,6.07,6.07,0,0,0-3.11.79,5.43,5.43,0,0,0-2.08,2.24,7.24,7.24,0,0,0-.74,3.34v4.67a7.24,7.24,0,0,0,.74,3.34,5.34,5.34,0,0,0,2.08,2.23,6.06,6.06,0,0,0,3.11.78,5.73,5.73,0,0,0,4.75-2.4,6.55,6.55,0,0,0,1.12-2.66h-2.45a3.76,3.76,0,0,1-.74,1.48,3.55,3.55,0,0,1-1.22.94,3.48,3.48,0,0,1-1.46.31,3.23,3.23,0,0,1-3.05-1.91,5,5,0,0,1-.43-2.11v-4.67A5,5,0,0,1,217.39,193.26Z"/><path class="cls-1" d="M245.1,197.4a15.69,15.69,0,0,0-2.58-.75l-.13,0-.13,0-.09,0-.08,0a17.63,17.63,0,0,1-2.07-.5,3,3,0,0,1-1.25-.74,1.89,1.89,0,0,1-.49-1.38h0a2.3,2.3,0,0,1,1-2,4.63,4.63,0,0,1,2.72-.7,5.54,5.54,0,0,1,1.94.36,8.35,8.35,0,0,1,1.94,1.07l1.35-1.89a10.13,10.13,0,0,0-1.69-1,9.39,9.39,0,0,0-1.74-.59,8.34,8.34,0,0,0-1.8-.2,8.2,8.2,0,0,0-3.27.59,4.45,4.45,0,0,0-2.07,1.7,5,5,0,0,0-.71,2.71h0a4.42,4.42,0,0,0,.76,2.78,4,4,0,0,0,1.84,1.35,18.21,18.21,0,0,0,2.78.66l.17,0h.16a13.11,13.11,0,0,1,1.89.46,2.69,2.69,0,0,1,1.19.78,2,2,0,0,1,.47,1.41h0a2.2,2.2,0,0,1-1,1.94,5.1,5.1,0,0,1-2.87.68,7.54,7.54,0,0,1-2.55-.42,6.75,6.75,0,0,1-2.14-1.26l-1.49,1.83a9.5,9.5,0,0,0,1.79,1.17,9,9,0,0,0,2.05.7,11.06,11.06,0,0,0,2.34.23,8.78,8.78,0,0,0,3.38-.58,4.6,4.6,0,0,0,2.14-1.68,4.72,4.72,0,0,0,.73-2.67v0a4.5,4.5,0,0,0-.69-2.65A4.12,4.12,0,0,0,245.1,197.4Z"/><path class="cls-1" d="M259.24,189.79a6.71,6.71,0,0,0-6.28,0,5.27,5.27,0,0,0-2.1,2.21,7,7,0,0,0-.75,3.3v4.82a7,7,0,0,0,.75,3.3,5.27,5.27,0,0,0,2.1,2.21,6.79,6.79,0,0,0,6.28,0,5.35,5.35,0,0,0,2.11-2.21,7.1,7.1,0,0,0,.74-3.3V195.3a7.1,7.1,0,0,0-.74-3.3A5.35,5.35,0,0,0,259.24,189.79Zm.4,10.42a4.51,4.51,0,0,1-.44,2,3.16,3.16,0,0,1-1.24,1.34,3.84,3.84,0,0,1-3.72,0,3.16,3.16,0,0,1-1.24-1.34,4.51,4.51,0,0,1-.44-2v-5a4.48,4.48,0,0,1,.44-2,3.24,3.24,0,0,1,1.24-1.35,3.92,3.92,0,0,1,3.72,0,3.24,3.24,0,0,1,1.24,1.35,4.48,4.48,0,0,1,.44,2Z"/><polygon class="cls-1" points="266.89 189.19 265.72 189.19 265.72 206.23 268.11 206.23 268.11 199.06 275.16 199.06 275.16 196.78 268.11 196.78 268.11 191.46 276.44 191.46 276.44 189.19 268.11 189.19 266.89 189.19"/><polygon class="cls-1" points="278.08 191.46 282.9 191.46 282.9 206.23 285.29 206.23 285.29 191.46 290.11 191.46 290.11 189.19 278.08 189.19 278.08 191.46"/><polygon class="cls-1" points="308.76 189.19 305.75 202.55 302.26 189.19 300.62 189.19 297.13 202.55 294.12 189.19 291.63 189.19 295.79 206.23 298.23 206.23 301.51 194.32 304.65 206.23 307.09 206.23 311.25 189.19 308.76 189.19"/><path class="cls-1" d="M317.3,189.19l-6.28,17h2.57l1.29-3.74h6.87l1.29,3.74h2.58l-6.28-17Zm-1.64,11,2.66-7.74,2.65,7.74Z"/><path class="cls-1" d="M337.54,198.41a4.2,4.2,0,0,0,1.74-1.73,5.72,5.72,0,0,0,0-5.16,4.2,4.2,0,0,0-1.74-1.73,5.27,5.27,0,0,0-2.59-.61h-6.77v17h2.4V199h3.55l3.64,7.21h2.84l-3.94-7.47A4.31,4.31,0,0,0,337.54,198.41Zm-7-7h4.46a2.19,2.19,0,0,1,1.21.33,2.17,2.17,0,0,1,.81.93,3.48,3.48,0,0,1,0,2.78,2.17,2.17,0,0,1-.81.93,2.24,2.24,0,0,1-1.21.33h-4.46Z"/><polygon class="cls-1" points="345 189.19 343.84 189.19 343.84 206.23 345 206.23 346.23 206.23 354.79 206.23 354.79 203.96 346.23 203.96 346.23 198.91 353.5 198.91 353.5 196.63 346.23 196.63 346.23 191.46 354.79 191.46 354.79 189.19 346.23 189.19 345 189.19"/><path class="cls-1" d="M373.58,197.4a16.13,16.13,0,0,0-2.59-.75l-.13,0-.13,0-.08,0-.09,0a18.7,18.7,0,0,1-2.07-.5,2.92,2.92,0,0,1-1.24-.74,1.9,1.9,0,0,1-.5-1.38h0a2.29,2.29,0,0,1,1-2,4.6,4.6,0,0,1,2.71-.7,5.54,5.54,0,0,1,1.94.36,8.35,8.35,0,0,1,1.94,1.07l1.36-1.89a10.63,10.63,0,0,0-1.7-1,9.39,9.39,0,0,0-1.74-.59,8.92,8.92,0,0,0-5.07.39,4.45,4.45,0,0,0-2.07,1.7,5,5,0,0,0-.71,2.71h0a4.49,4.49,0,0,0,.76,2.78,4,4,0,0,0,1.84,1.35,18.21,18.21,0,0,0,2.78.66l.18,0h.15a13.11,13.11,0,0,1,1.89.46,2.79,2.79,0,0,1,1.2.78,2,2,0,0,1,.46,1.41h0a2.2,2.2,0,0,1-1,1.94,5.1,5.1,0,0,1-2.87.68,7.48,7.48,0,0,1-2.54-.42,6.79,6.79,0,0,1-2.15-1.26l-1.49,1.83a9.5,9.5,0,0,0,1.79,1.17,9.09,9.09,0,0,0,2.06.7,10.9,10.9,0,0,0,2.33.23,8.75,8.75,0,0,0,3.38-.58,4.55,4.55,0,0,0,2.14-1.68,4.73,4.73,0,0,0,.74-2.67v0a4.5,4.5,0,0,0-.7-2.65A4,4,0,0,0,373.58,197.4Z"/><path class="cls-1" d="M387.71,189.79a6.71,6.71,0,0,0-6.28,0,5.39,5.39,0,0,0-2.1,2.21,7,7,0,0,0-.74,3.3v4.82a7,7,0,0,0,.74,3.3,5.39,5.39,0,0,0,2.1,2.21,6.79,6.79,0,0,0,6.28,0,5.35,5.35,0,0,0,2.11-2.21,7.1,7.1,0,0,0,.74-3.3V195.3a7.1,7.1,0,0,0-.74-3.3A5.35,5.35,0,0,0,387.71,189.79Zm.4,10.42a4.38,4.38,0,0,1-.44,2,3.1,3.1,0,0,1-1.24,1.34,3.82,3.82,0,0,1-3.71,0,3.18,3.18,0,0,1-1.25-1.34,4.51,4.51,0,0,1-.44-2v-5a4.48,4.48,0,0,1,.44-2,3.26,3.26,0,0,1,1.25-1.35,3.9,3.9,0,0,1,3.71,0,3.18,3.18,0,0,1,1.24,1.35,4.35,4.35,0,0,1,.44,2Z"/><polygon class="cls-1" points="396.58 189.19 394.19 189.19 394.19 206.23 395.39 206.23 396.58 206.23 405.14 206.23 405.14 203.96 396.58 203.96 396.58 189.19"/><path class="cls-1" d="M416.84,200.15a4.08,4.08,0,0,1-.95,2.88,3.45,3.45,0,0,1-2.66,1,3.41,3.41,0,0,1-2.65-1,4.08,4.08,0,0,1-.94-2.88v-11h-2.39v10.87a7.66,7.66,0,0,0,.7,3.43,4.89,4.89,0,0,0,2.05,2.17,6.51,6.51,0,0,0,3.23.74,6.57,6.57,0,0,0,3.24-.74,4.89,4.89,0,0,0,2-2.17,7.66,7.66,0,0,0,.71-3.43V189.19h-2.39Z"/><polygon class="cls-1" points="420.87 191.46 425.68 191.46 425.68 206.23 428.07 206.23 428.07 191.46 432.89 191.46 432.89 189.19 420.87 189.19 420.87 191.46"/><rect class="cls-1" x="435.23" y="189.19" width="2.39" height="17.04"/><path class="cls-1" d="M450.62,189.79a6.71,6.71,0,0,0-6.28,0,5.27,5.27,0,0,0-2.1,2.21,7,7,0,0,0-.75,3.3v4.82a7,7,0,0,0,.75,3.3,5.27,5.27,0,0,0,2.1,2.21,6.79,6.79,0,0,0,6.28,0,5.27,5.27,0,0,0,2.1-2.21,7,7,0,0,0,.75-3.3V195.3a7,7,0,0,0-.75-3.3A5.27,5.27,0,0,0,450.62,189.79Zm.4,10.42a4.51,4.51,0,0,1-.44,2,3.16,3.16,0,0,1-1.24,1.34,3.84,3.84,0,0,1-3.72,0,3.16,3.16,0,0,1-1.24-1.34,4.51,4.51,0,0,1-.44-2v-5a4.48,4.48,0,0,1,.44-2,3.24,3.24,0,0,1,1.24-1.35,3.92,3.92,0,0,1,3.72,0,3.24,3.24,0,0,1,1.24,1.35,4.48,4.48,0,0,1,.44,2Z"/><polygon class="cls-1" points="467.32 201.92 459.27 189.19 457.1 189.19 457.1 206.22 459.47 206.22 459.47 193.68 467.5 206.22 469.69 206.22 469.69 189.19 467.32 189.19 467.32 201.92"/><path class="cls-1" d="M484.59,198.8a4.12,4.12,0,0,0-1.74-1.4,15.69,15.69,0,0,0-2.58-.75l-.13,0-.13,0-.09,0-.08,0a17.63,17.63,0,0,1-2.07-.5,3,3,0,0,1-1.25-.74A1.89,1.89,0,0,1,476,194h0a2.3,2.3,0,0,1,1-2,4.63,4.63,0,0,1,2.72-.7,5.54,5.54,0,0,1,1.94.36,8.35,8.35,0,0,1,1.94,1.07l1.35-1.89a10.13,10.13,0,0,0-1.69-1,9.39,9.39,0,0,0-1.74-.59,8.34,8.34,0,0,0-1.8-.2,8.2,8.2,0,0,0-3.27.59,4.45,4.45,0,0,0-2.07,1.7,5,5,0,0,0-.71,2.71h0a4.42,4.42,0,0,0,.76,2.78,4,4,0,0,0,1.84,1.35,18.21,18.21,0,0,0,2.78.66l.17,0h.16a13.11,13.11,0,0,1,1.89.46,2.69,2.69,0,0,1,1.19.78,2,2,0,0,1,.47,1.41h0a2.2,2.2,0,0,1-1,1.94,5.1,5.1,0,0,1-2.87.68,7.54,7.54,0,0,1-2.55-.42,6.75,6.75,0,0,1-2.14-1.26l-1.49,1.83a9.5,9.5,0,0,0,1.79,1.17,9,9,0,0,0,2.05.7,11.06,11.06,0,0,0,2.34.23,8.78,8.78,0,0,0,3.38-.58,4.6,4.6,0,0,0,2.14-1.68,4.72,4.72,0,0,0,.73-2.67v0A4.5,4.5,0,0,0,484.59,198.8Z"/></svg>