<?xml version="1.0" encoding="UTF-8" standalone="no"?>
<svg
   xmlns:dc="http://purl.org/dc/elements/1.1/"
   xmlns:cc="http://creativecommons.org/ns#"
   xmlns:rdf="http://www.w3.org/1999/02/22-rdf-syntax-ns#"
   xmlns:svg="http://www.w3.org/2000/svg"
   xmlns="http://www.w3.org/2000/svg"
   xmlns:sodipodi="http://sodipodi.sourceforge.net/DTD/sodipodi-0.dtd"
   xmlns:inkscape="http://www.inkscape.org/namespaces/inkscape"
   width="237.82"
   height="63.596"
   version="1.1"
   viewBox="0 0 237.82 63.596"
   id="svg34"
   sodipodi:docname="brand_optimized_white_text.svg"
   inkscape:version="0.92.4 (5da689c313, 2019-01-14)">
  <metadata
     id="metadata40">
    <rdf:RDF>
      <cc:Work
         rdf:about="">
        <dc:format>image/svg+xml</dc:format>
        <dc:type
           rdf:resource="http://purl.org/dc/dcmitype/StillImage" />
        <dc:title></dc:title>
      </cc:Work>
    </rdf:RDF>
  </metadata>
  <defs
     id="defs38" />
  <sodipodi:namedview
     pagecolor="#ffffff"
     bordercolor="#666666"
     borderopacity="1"
     objecttolerance="10"
     gridtolerance="10"
     guidetolerance="10"
     inkscape:pageopacity="0"
     inkscape:pageshadow="2"
     inkscape:window-width="1680"
     inkscape:window-height="987"
     id="namedview36"
     showgrid="false"
     inkscape:zoom="3.3776523"
     inkscape:cx="64.728245"
     inkscape:cy="49.626598"
     inkscape:window-x="-8"
     inkscape:window-y="144"
     inkscape:window-maximized="1"
     inkscape:current-layer="svg34" />
  <g
     transform="matrix(.22276 0 0 .22276 -11.338 -10.951)"
     id="g8">
    <g
       transform="translate(1069.2,663.28)"
       id="g6">
      <path
         d="m-935.86-614.12-82.416 47.584v95.166l82.416 47.584-82.416 47.582 82.416 47.584 82.416-47.584v-95.166l-82.416-47.582 82.416-47.584z"
         fill="#f90"
         id="path2" />
      <path
         d="m-1018.3-566.54v95.166l82.416-47.582zm164.83 95.166-82.416 47.584v95.166l82.416-47.584z"
         fill="#ffc022"
         id="path4" />
    </g>
  </g>
  <g
     fill="#161c2d"
     stroke-width=".84128"
     aria-label="Segments.ai"
     id="g32"
     style="fill:#ffffff">
    <path
       d="m59.509 41.724q-2.0191 0-4.0045-0.70668-1.9854-0.70668-2.8604-1.5816l1.7835-3.1969q0.70668 0.63938 2.1873 1.3461 1.5143 0.67303 2.894 0.67303 1.7835 0 2.894-0.84128 1.1441-0.84128 1.1441-2.3219 0-1.1441-0.60572-1.9854-0.60573-0.84128-1.4807-1.3797-0.87494-0.57207-2.4902-1.3797-1.9181-0.94224-2.6248-1.4134-3.2642-2.1873-3.2642-6.0572 0-3.1969 2.12-4.8794 2.12-1.7162 5.3506-1.7162 3.4661 0 5.889 1.9854l-1.7835 3.0623q-0.63938-0.67303-1.8172-1.1441-1.1442-0.50477-2.4566-0.50477-1.6826 0-2.6585 0.77398-0.94224 0.74033-0.94224 2.221 0 1.0432 0.60572 1.8845 0.60573 0.80763 1.5143 1.4134 0.94223 0.60572 2.5238 1.4807 1.5143 0.84128 2.3219 1.3461 0.80764 0.47112 1.5143 1.1441 0.97589 0.87494 1.5816 2.0864 0.60572 1.2114 0.60572 2.6585 0 2.2546-1.0432 3.8363-1.0095 1.5816-2.8267 2.3892-1.7835 0.80763-4.0718 0.80763z"
       id="path10"
       style="fill:#ffffff" />
    <path
       d="m78.568 41.724q-2.7594 0-4.6102-1.0768-1.8508-1.1105-2.7258-2.9277-0.87493-1.8508-0.87493-4.0382 0-2.4566 1.0095-4.3074 1.0432-1.8508 2.8604-2.8267 1.8172-1.0095 4.1055-1.0095 3.567 0 5.2833 1.9854 1.7499 1.9518 1.7499 5.5188 0 0.90859-0.10096 1.8845h-11.105q0.37017 2.0527 1.447 2.9613 1.1105 0.90859 3.0623 0.90859 1.6153 0 2.6585-0.26921t1.9181-0.74033l1.1105 2.5912q-0.84129 0.53842-2.2883 0.94224-1.447 0.40382-3.4997 0.40382zm3.2642-9.3214q0.0336-2.0864-0.90858-2.9277-0.94224-0.87494-2.6921-0.87494-3.5334 0-4.0718 3.8026z"
       id="path12"
       style="fill:#ffffff" />
    <path
       d="m96.648 49.464q-1.7162 0-3.3988-0.47112-1.6489-0.47112-2.3556-0.87494l0.80764-3.3651q2.221 1.447 4.8458 1.447 2.0191 0 3.3988-0.97589 1.3797-0.97589 1.4133-3.8026v-2.7594q-0.70668 1.3124-2.2883 2.1873-1.5816 0.87494-3.4997 0.87494-2.0191 0-3.7017-0.97589-1.6826-1.0095-2.6584-2.8604t-0.97589-4.3074q0-2.3556 0.90858-4.1728 0.94224-1.8508 2.6585-2.8604 1.7162-1.0095 4.0045-1.0095 1.3461 0 2.5239 0.47112 1.1778 0.47112 1.9854 1.1778 0.84128 0.67303 1.1105 1.3461l0.0673-2.5912h3.4324v15.345q0 3.9372-2.0191 6.0572-2.0191 2.12-6.2592 2.12zm-0.0673-10.802q1.9181 0 3.2305-1.3124 1.3124-1.3461 1.3124-3.4997v-0.23556q0-1.447-0.60572-2.5912-0.60573-1.1441-1.6489-1.7835t-2.2883-0.63938q-2.1537 0-3.3315 1.4134-1.1778 1.3797-1.1778 3.6007 0 2.2546 1.1442 3.668 1.1778 1.3797 3.3651 1.3797z"
       id="path14"
       style="fill:#ffffff" />
    <path
       d="m109.58 25.942h3.6344v2.7931q0.74033-1.5816 2.1537-2.3892 1.447-0.80763 3.2978-0.80763 4.1391 0.03365 5.0814 2.8604 0.74033-1.3124 2.221-2.0864t3.1296-0.77398q2.4229 0 3.668 0.94224 1.2451 0.90859 1.6489 2.6248 0.43747 1.6826 0.43747 4.5429v7.7398h-3.668v-7.7735q0-2.7258-0.57207-3.9036-0.53843-1.1778-2.12-1.1778-2.12 0-3.2305 1.447-1.0768 1.4134-1.0768 3.7353v7.6725h-3.6344v-8.3119q0-1.7835-0.13461-2.6585-0.1346-0.87494-0.74033-1.3797-0.60573-0.50477-1.9518-0.50477-1.1778 0-2.221 0.70668-1.0095 0.70668-1.6489 1.9181-0.60572 1.1778-0.60572 2.5575v7.6725h-3.668z"
       id="path16"
       style="fill:#ffffff" />
    <path
       d="m146.79 41.724q-2.7594 0-4.6102-1.0768-1.8508-1.1105-2.7258-2.9277-0.87494-1.8508-0.87494-4.0382 0-2.4566 1.0095-4.3074 1.0432-1.8508 2.8604-2.8267 1.8172-1.0095 4.1055-1.0095 3.567 0 5.2833 1.9854 1.7499 1.9518 1.7499 5.5188 0 0.90859-0.10096 1.8845h-11.105q0.37016 2.0527 1.447 2.9613 1.1105 0.90859 3.0623 0.90859 1.6153 0 2.6585-0.26921t1.9181-0.74033l1.1105 2.5912q-0.84129 0.53842-2.2883 0.94224-1.447 0.40382-3.4997 0.40382zm3.2642-9.3214q0.0337-2.0864-0.90859-2.9277-0.94224-0.87494-2.6921-0.87494-3.5334 0-4.0718 3.8026z"
       id="path18"
       style="fill:#ffffff" />
    <path
       d="m157.37 25.942h3.567l0.0337 2.8267q0.63938-1.4134 2.0191-2.3219 1.3797-0.90859 3.2305-0.90859 2.3892 0 3.668 1.0095 1.2788 0.97589 1.7162 2.7594 0.43747 1.7835 0.43747 4.6439v7.437h-3.6344v-7.336q0-2.9277-0.57208-4.2064-0.57207-1.3124-2.3556-1.3124-1.0095 0-2.0527 0.63938-1.0432 0.60572-1.7499 1.7835-0.67302 1.1778-0.67302 2.7594v7.6725h-3.6344z"
       id="path20"
       style="fill:#ffffff" />
    <path
       d="m178.04 28.903h-2.7258v-2.9613h2.7258v-6.2928l3.668-0.80763v7.1004h3.567v2.9613h-3.567v12.485h-3.668z"
       id="path22"
       style="fill:#ffffff" />
    <path
       d="m193.57 41.724q-1.6153 0-3.3651-0.40382-1.7162-0.43747-2.4566-1.0095l1.2114-2.8604q2.0191 1.4134 4.6102 1.4134t2.5912-1.5143q0-0.67303-0.53843-1.0432-0.53842-0.37016-1.9181-0.87494l-1.2788-0.47112q-2.0191-0.80763-3.1969-1.9181-1.1778-1.1441-1.1778-2.995 0-2.12 1.6489-3.2978 1.6826-1.2114 4.4756-1.2114 1.3797 0 2.6921 0.30286 1.346 0.30286 2.0527 0.77398l-1.3124 2.894q-0.43747-0.43747-1.4134-0.74033-0.94224-0.33651-2.12-0.33651-2.3892 0-2.3892 1.447 0 0.80763 0.63937 1.2451 0.63938 0.40382 2.0864 0.90859 0.1346 0.03365 1.0432 0.37016 2.1537 0.84128 3.1969 1.9181t1.0432 2.7594q0 2.2883-1.7499 3.4661-1.7162 1.1778-4.3747 1.1778z"
       id="path24"
       style="fill:#ffffff" />
    <path
       d="m205.93 41.724q-1.0096 0-1.7162-0.67303-0.70668-0.70668-0.70668-1.7162 0-1.0432 0.67302-1.7162 0.70668-0.70668 1.7499-0.70668 1.0432 0 1.7162 0.70668 0.70668 0.67303 0.70668 1.7162 0 1.0095-0.70668 1.7162-0.67302 0.67303-1.7162 0.67303z"
       id="path26"
       style="fill:#ffffff" />
    <path
       d="m219.41 41.724q-2.0864 0-3.8699-0.97589-1.7499-1.0095-2.8267-2.8267-1.0432-1.8508-1.0432-4.3074 0-2.4229 0.90859-4.2401 0.94225-1.8172 2.6585-2.8267 1.7162-1.0095 4.0382-1.0095 1.346 0 2.5238 0.47112 1.1778 0.47112 1.9854 1.1778 0.80763 0.67303 1.0768 1.3461l0.0673-2.5912h3.4661v15.446h-3.4324l-0.0673-2.7258q-0.57208 1.2114-2.0864 2.1537-1.5143 0.90859-3.3988 0.90859zm0.60573-3.0286q1.9181 0 3.2305-1.3124 1.3124-1.3461 1.3124-3.4997v-0.23556q0-1.447-0.60572-2.5912t-1.6489-1.7835q-1.0432-0.63938-2.2883-0.63938-2.1537 0-3.3315 1.4134-1.1778 1.3797-1.1778 3.6007 0 2.2546 1.1441 3.668 1.1778 1.3797 3.3651 1.3797z"
       id="path28"
       style="fill:#ffffff" />
    <path
       d="m233.55 25.942h3.769v15.446h-3.769zm1.8508-2.894q-1.0432 0-1.7499-0.70668-0.70668-0.70668-0.70668-1.7499 0-0.94224 0.70668-1.6153 0.70668-0.67303 1.7499-0.67303 1.0095 0 1.7162 0.67303 0.70668 0.67303 0.70668 1.6153 0 1.0432-0.70668 1.7499-0.67303 0.70668-1.7162 0.70668z"
       id="path30"
       style="fill:#ffffff" />
  </g>
</svg>
